<svg width="74" height="18" viewBox="0 0 74 18" fill="none" xmlns="http://www.w3.org/2000/svg">
<path d="M3.70322 17V3.32L0.871219 4.64V2.432L4.42322 0.487999H6.17522V17H3.70322ZM11.9108 14.864H19.5428V17H9.51084V14.984C9.51084 13.608 9.55084 12.6 9.63084 11.96C9.72684 11.304 9.94284 10.768 10.2788 10.352C10.6148 9.92 11.1668 9.52 11.9348 9.152L15.4868 7.448C16.1588 7.128 16.5908 6.8 16.7828 6.464C16.9908 6.128 17.0948 5.584 17.0948 4.832C17.0948 4.128 16.9988 3.608 16.8068 3.272C16.6308 2.936 16.3188 2.712 15.8708 2.6C15.4388 2.488 14.7748 2.432 13.8788 2.432C12.7428 2.432 11.3828 2.528 9.79884 2.72V0.727999C10.4228 0.599999 11.1908 0.495999 12.1028 0.415999C13.0148 0.335999 13.8548 0.295999 14.6228 0.295999C15.6948 0.295999 16.5748 0.391999 17.2628 0.584C17.9508 0.775999 18.5028 1.192 18.9188 1.832C19.3348 2.456 19.5428 3.384 19.5428 4.616C19.5428 5.56 19.4548 6.32 19.2788 6.896C19.1188 7.472 18.8548 7.936 18.4868 8.288C18.1348 8.624 17.6468 8.944 17.0228 9.248L13.0868 11.12C12.6388 11.328 12.3348 11.568 12.1748 11.84C12.0788 12.032 12.0068 12.28 11.9588 12.584C11.9268 12.888 11.9108 13.328 11.9108 13.904V14.864ZM27.8305 17.192C26.0545 17.192 24.7905 16.968 24.0385 16.52C23.2865 16.072 22.8065 15.304 22.5985 14.216C22.4065 13.128 22.3105 11.304 22.3105 8.744C22.3105 6.184 22.4065 4.36 22.5985 3.272C22.8065 2.184 23.2865 1.416 24.0385 0.967999C24.7905 0.519999 26.0545 0.295999 27.8305 0.295999C29.6225 0.295999 30.8865 0.519999 31.6225 0.967999C32.3745 1.416 32.8465 2.184 33.0385 3.272C33.2465 4.344 33.3505 6.168 33.3505 8.744C33.3505 11.304 33.2465 13.128 33.0385 14.216C32.8465 15.304 32.3745 16.072 31.6225 16.52C30.8705 16.968 29.6065 17.192 27.8305 17.192ZM27.8305 15.056C28.8865 15.056 29.5985 14.952 29.9665 14.744C30.3505 14.52 30.5985 14.016 30.7105 13.232C30.8225 12.432 30.8785 10.936 30.8785 8.744C30.8785 6.552 30.8225 5.064 30.7105 4.28C30.5985 3.48 30.3505 2.976 29.9665 2.768C29.5985 2.544 28.8865 2.432 27.8305 2.432C26.7745 2.432 26.0545 2.544 25.6705 2.768C25.3025 2.976 25.0625 3.48 24.9505 4.28C24.8385 5.064 24.7825 6.552 24.7825 8.744C24.7825 10.936 24.8385 12.432 24.9505 13.232C25.0625 14.016 25.3025 14.52 25.6705 14.744C26.0545 14.952 26.7745 15.056 27.8305 15.056ZM41.7055 17.192C39.9295 17.192 38.6655 16.968 37.9135 16.52C37.1615 16.072 36.6815 15.304 36.4735 14.216C36.2815 13.128 36.1855 11.304 36.1855 8.744C36.1855 6.184 36.2815 4.36 36.4735 3.272C36.6815 2.184 37.1615 1.416 37.9135 0.967999C38.6655 0.519999 39.9295 0.295999 41.7055 0.295999C43.4975 0.295999 44.7615 0.519999 45.4975 0.967999C46.2495 1.416 46.7215 2.184 46.9135 3.272C47.1215 4.344 47.2255 6.168 47.2255 8.744C47.2255 11.304 47.1215 13.128 46.9135 14.216C46.7215 15.304 46.2495 16.072 45.4975 16.52C44.7455 16.968 43.4815 17.192 41.7055 17.192ZM41.7055 15.056C42.7615 15.056 43.4735 14.952 43.8415 14.744C44.2255 14.52 44.4735 14.016 44.5855 13.232C44.6975 12.432 44.7535 10.936 44.7535 8.744C44.7535 6.552 44.6975 5.064 44.5855 4.28C44.4735 3.48 44.2255 2.976 43.8415 2.768C43.4735 2.544 42.7615 2.432 41.7055 2.432C40.6495 2.432 39.9295 2.544 39.5455 2.768C39.1775 2.976 38.9375 3.48 38.8255 4.28C38.7135 5.064 38.6575 6.552 38.6575 8.744C38.6575 10.936 38.7135 12.432 38.8255 13.232C38.9375 14.016 39.1775 14.52 39.5455 14.744C39.9295 14.952 40.6495 15.056 41.7055 15.056ZM55.5805 17.192C53.8045 17.192 52.5405 16.968 51.7885 16.52C51.0365 16.072 50.5565 15.304 50.3485 14.216C50.1565 13.128 50.0605 11.304 50.0605 8.744C50.0605 6.184 50.1565 4.36 50.3485 3.272C50.5565 2.184 51.0365 1.416 51.7885 0.967999C52.5405 0.519999 53.8045 0.295999 55.5805 0.295999C57.3725 0.295999 58.6365 0.519999 59.3725 0.967999C60.1245 1.416 60.5965 2.184 60.7885 3.272C60.9965 4.344 61.1005 6.168 61.1005 8.744C61.1005 11.304 60.9965 13.128 60.7885 14.216C60.5965 15.304 60.1245 16.072 59.3725 16.52C58.6205 16.968 57.3565 17.192 55.5805 17.192ZM55.5805 15.056C56.6365 15.056 57.3485 14.952 57.7165 14.744C58.1005 14.52 58.3485 14.016 58.4605 13.232C58.5725 12.432 58.6285 10.936 58.6285 8.744C58.6285 6.552 58.5725 5.064 58.4605 4.28C58.3485 3.48 58.1005 2.976 57.7165 2.768C57.3485 2.544 56.6365 2.432 55.5805 2.432C54.5245 2.432 53.8045 2.544 53.4205 2.768C53.0525 2.976 52.8125 3.48 52.7005 4.28C52.5885 5.064 52.5325 6.552 52.5325 8.744C52.5325 10.936 52.5885 12.432 52.7005 13.232C52.8125 14.016 53.0525 14.52 53.4205 14.744C53.8045 14.952 54.5245 15.056 55.5805 15.056ZM67.7035 15.512V11.888H64.1035V9.992H67.7035V6.368H69.5995V9.992H73.2235V11.888H69.5995V15.512H67.7035Z" fill="#254CAC"/>
</svg>
