<svg width="65" height="18" viewBox="0 0 65 18" fill="none" xmlns="http://www.w3.org/2000/svg">
<path d="M2.696 14.864H10.328V17H0.296V14.984C0.296 13.608 0.336 12.6 0.416 11.96C0.512 11.304 0.728 10.768 1.064 10.352C1.4 9.92 1.952 9.52 2.72 9.152L6.272 7.448C6.944 7.128 7.376 6.8 7.568 6.464C7.776 6.128 7.88 5.584 7.88 4.832C7.88 4.128 7.784 3.608 7.592 3.272C7.416 2.936 7.104 2.712 6.656 2.6C6.224 2.488 5.56 2.432 4.664 2.432C3.528 2.432 2.168 2.528 0.584 2.72V0.727999C1.208 0.599999 1.976 0.495999 2.888 0.415999C3.8 0.335999 4.64 0.295999 5.408 0.295999C6.48 0.295999 7.36 0.391999 8.048 0.584C8.736 0.775999 9.288 1.192 9.704 1.832C10.12 2.456 10.328 3.384 10.328 4.616C10.328 5.56 10.24 6.32 10.064 6.896C9.904 7.472 9.64 7.936 9.272 8.288C8.92 8.624 8.432 8.944 7.808 9.248L3.872 11.12C3.424 11.328 3.12 11.568 2.96 11.84C2.864 12.032 2.792 12.28 2.744 12.584C2.712 12.888 2.696 13.328 2.696 13.904V14.864ZM18.6157 17.192C16.8397 17.192 15.5757 16.968 14.8237 16.52C14.0717 16.072 13.5917 15.304 13.3837 14.216C13.1917 13.128 13.0957 11.304 13.0957 8.744C13.0957 6.184 13.1917 4.36 13.3837 3.272C13.5917 2.184 14.0717 1.416 14.8237 0.967999C15.5757 0.519999 16.8397 0.295999 18.6157 0.295999C20.4077 0.295999 21.6717 0.519999 22.4077 0.967999C23.1597 1.416 23.6317 2.184 23.8237 3.272C24.0317 4.344 24.1357 6.168 24.1357 8.744C24.1357 11.304 24.0317 13.128 23.8237 14.216C23.6317 15.304 23.1597 16.072 22.4077 16.52C21.6557 16.968 20.3917 17.192 18.6157 17.192ZM18.6157 15.056C19.6717 15.056 20.3837 14.952 20.7517 14.744C21.1357 14.52 21.3837 14.016 21.4957 13.232C21.6077 12.432 21.6637 10.936 21.6637 8.744C21.6637 6.552 21.6077 5.064 21.4957 4.28C21.3837 3.48 21.1357 2.976 20.7517 2.768C20.3837 2.544 19.6717 2.432 18.6157 2.432C17.5597 2.432 16.8397 2.544 16.4557 2.768C16.0877 2.976 15.8477 3.48 15.7357 4.28C15.6237 5.064 15.5677 6.552 15.5677 8.744C15.5677 10.936 15.6237 12.432 15.7357 13.232C15.8477 14.016 16.0877 14.52 16.4557 14.744C16.8397 14.952 17.5597 15.056 18.6157 15.056ZM32.4907 17.192C30.7147 17.192 29.4507 16.968 28.6987 16.52C27.9467 16.072 27.4667 15.304 27.2587 14.216C27.0667 13.128 26.9707 11.304 26.9707 8.744C26.9707 6.184 27.0667 4.36 27.2587 3.272C27.4667 2.184 27.9467 1.416 28.6987 0.967999C29.4507 0.519999 30.7147 0.295999 32.4907 0.295999C34.2827 0.295999 35.5467 0.519999 36.2827 0.967999C37.0347 1.416 37.5067 2.184 37.6987 3.272C37.9067 4.344 38.0107 6.168 38.0107 8.744C38.0107 11.304 37.9067 13.128 37.6987 14.216C37.5067 15.304 37.0347 16.072 36.2827 16.52C35.5307 16.968 34.2667 17.192 32.4907 17.192ZM32.4907 15.056C33.5467 15.056 34.2587 14.952 34.6267 14.744C35.0107 14.52 35.2587 14.016 35.3707 13.232C35.4827 12.432 35.5387 10.936 35.5387 8.744C35.5387 6.552 35.4827 5.064 35.3707 4.28C35.2587 3.48 35.0107 2.976 34.6267 2.768C34.2587 2.544 33.5467 2.432 32.4907 2.432C31.4347 2.432 30.7147 2.544 30.3307 2.768C29.9627 2.976 29.7227 3.48 29.6107 4.28C29.4987 5.064 29.4427 6.552 29.4427 8.744C29.4427 10.936 29.4987 12.432 29.6107 13.232C29.7227 14.016 29.9627 14.52 30.3307 14.744C30.7147 14.952 31.4347 15.056 32.4907 15.056ZM46.3657 17.192C44.5897 17.192 43.3257 16.968 42.5737 16.52C41.8217 16.072 41.3417 15.304 41.1337 14.216C40.9417 13.128 40.8457 11.304 40.8457 8.744C40.8457 6.184 40.9417 4.36 41.1337 3.272C41.3417 2.184 41.8217 1.416 42.5737 0.967999C43.3257 0.519999 44.5897 0.295999 46.3657 0.295999C48.1577 0.295999 49.4217 0.519999 50.1577 0.967999C50.9097 1.416 51.3817 2.184 51.5737 3.272C51.7817 4.344 51.8857 6.168 51.8857 8.744C51.8857 11.304 51.7817 13.128 51.5737 14.216C51.3817 15.304 50.9097 16.072 50.1577 16.52C49.4057 16.968 48.1417 17.192 46.3657 17.192ZM46.3657 15.056C47.4217 15.056 48.1337 14.952 48.5017 14.744C48.8857 14.52 49.1337 14.016 49.2457 13.232C49.3577 12.432 49.4137 10.936 49.4137 8.744C49.4137 6.552 49.3577 5.064 49.2457 4.28C49.1337 3.48 48.8857 2.976 48.5017 2.768C48.1337 2.544 47.4217 2.432 46.3657 2.432C45.3097 2.432 44.5897 2.544 44.2057 2.768C43.8377 2.976 43.5977 3.48 43.4857 4.28C43.3737 5.064 43.3177 6.552 43.3177 8.744C43.3177 10.936 43.3737 12.432 43.4857 13.232C43.5977 14.016 43.8377 14.52 44.2057 14.744C44.5897 14.952 45.3097 15.056 46.3657 15.056ZM58.4887 15.512V11.888H54.8887V9.992H58.4887V6.368H60.3847V9.992H64.0087V11.888H60.3847V15.512H58.4887Z" fill="#254CAC"/>
</svg>
