<svg width="51" height="18" viewBox="0 0 51 18" fill="none" xmlns="http://www.w3.org/2000/svg">
<path d="M4.72144 17.192C4.06544 17.192 3.31344 17.152 2.46544 17.072C1.63344 16.992 0.913438 16.888 0.305438 16.76V14.792C1.79344 14.968 3.17744 15.056 4.45744 15.056C5.32144 15.056 5.97744 15 6.42544 14.888C6.88944 14.776 7.23344 14.536 7.45744 14.168C7.69744 13.8 7.81744 13.224 7.81744 12.44C7.81744 11.4 7.63344 10.688 7.26544 10.304C6.89744 9.904 6.24944 9.704 5.32144 9.704H2.72944V7.592H5.32144C6.10544 7.592 6.68944 7.416 7.07344 7.064C7.47344 6.712 7.67344 6.032 7.67344 5.024C7.67344 4.24 7.56144 3.672 7.33744 3.32C7.12944 2.952 6.79344 2.712 6.32944 2.6C5.88144 2.488 5.19344 2.432 4.26544 2.432C3.68944 2.432 3.03344 2.464 2.29744 2.528C1.56144 2.576 0.921438 2.64 0.377438 2.72V0.727999C0.969438 0.599999 1.67344 0.495999 2.48944 0.415999C3.32144 0.335999 4.06544 0.295999 4.72144 0.295999C6.08144 0.295999 7.15344 0.455999 7.93744 0.775999C8.73744 1.08 9.30544 1.552 9.64144 2.192C9.99344 2.816 10.1694 3.632 10.1694 4.64C10.1694 5.808 9.96144 6.696 9.54544 7.304C9.12944 7.912 8.50544 8.32 7.67344 8.528V8.624C8.55344 8.816 9.20944 9.208 9.64144 9.8C10.0894 10.392 10.3134 11.32 10.3134 12.584C10.3134 13.608 10.1614 14.456 9.85744 15.128C9.55344 15.784 8.99344 16.296 8.17744 16.664C7.36144 17.016 6.20944 17.192 4.72144 17.192ZM18.6313 17.192C16.8553 17.192 15.5913 16.968 14.8393 16.52C14.0873 16.072 13.6073 15.304 13.3993 14.216C13.2073 13.128 13.1113 11.304 13.1113 8.744C13.1113 6.184 13.2073 4.36 13.3993 3.272C13.6073 2.184 14.0873 1.416 14.8393 0.967999C15.5913 0.519999 16.8553 0.295999 18.6313 0.295999C20.4233 0.295999 21.6873 0.519999 22.4233 0.967999C23.1753 1.416 23.6473 2.184 23.8393 3.272C24.0473 4.344 24.1513 6.168 24.1513 8.744C24.1513 11.304 24.0473 13.128 23.8393 14.216C23.6473 15.304 23.1753 16.072 22.4233 16.52C21.6713 16.968 20.4073 17.192 18.6313 17.192ZM18.6313 15.056C19.6873 15.056 20.3993 14.952 20.7673 14.744C21.1513 14.52 21.3993 14.016 21.5113 13.232C21.6233 12.432 21.6793 10.936 21.6793 8.744C21.6793 6.552 21.6233 5.064 21.5113 4.28C21.3993 3.48 21.1513 2.976 20.7673 2.768C20.3993 2.544 19.6873 2.432 18.6313 2.432C17.5753 2.432 16.8553 2.544 16.4713 2.768C16.1033 2.976 15.8633 3.48 15.7513 4.28C15.6393 5.064 15.5833 6.552 15.5833 8.744C15.5833 10.936 15.6393 12.432 15.7513 13.232C15.8633 14.016 16.1033 14.52 16.4713 14.744C16.8553 14.952 17.5753 15.056 18.6313 15.056ZM32.5063 17.192C30.7303 17.192 29.4663 16.968 28.7143 16.52C27.9623 16.072 27.4823 15.304 27.2743 14.216C27.0823 13.128 26.9863 11.304 26.9863 8.744C26.9863 6.184 27.0823 4.36 27.2743 3.272C27.4823 2.184 27.9623 1.416 28.7143 0.967999C29.4663 0.519999 30.7303 0.295999 32.5063 0.295999C34.2983 0.295999 35.5623 0.519999 36.2983 0.967999C37.0503 1.416 37.5223 2.184 37.7143 3.272C37.9223 4.344 38.0263 6.168 38.0263 8.744C38.0263 11.304 37.9223 13.128 37.7143 14.216C37.5223 15.304 37.0503 16.072 36.2983 16.52C35.5463 16.968 34.2823 17.192 32.5063 17.192ZM32.5063 15.056C33.5623 15.056 34.2743 14.952 34.6423 14.744C35.0263 14.52 35.2743 14.016 35.3863 13.232C35.4983 12.432 35.5543 10.936 35.5543 8.744C35.5543 6.552 35.4983 5.064 35.3863 4.28C35.2743 3.48 35.0263 2.976 34.6423 2.768C34.2743 2.544 33.5623 2.432 32.5063 2.432C31.4503 2.432 30.7303 2.544 30.3463 2.768C29.9783 2.976 29.7383 3.48 29.6263 4.28C29.5143 5.064 29.4583 6.552 29.4583 8.744C29.4583 10.936 29.5143 12.432 29.6263 13.232C29.7383 14.016 29.9783 14.52 30.3463 14.744C30.7303 14.952 31.4503 15.056 32.5063 15.056ZM44.6293 15.512V11.888H41.0293V9.992H44.6293V6.368H46.5253V9.992H50.1493V11.888H46.5253V15.512H44.6293Z" fill="#254CAC"/>
</svg>
