<svg width="50" height="43" viewBox="0 0 50 43" fill="none" xmlns="http://www.w3.org/2000/svg">
<path d="M42.5142 40.6916C43.4855 41.0559 44.4574 41.4077 45.4316 41.7605C46.088 41.9981 46.7454 42.2362 47.4045 42.4786L47.4051 42.4789C47.6786 42.58 47.905 42.6165 48.0985 42.5932C48.2826 42.571 48.4672 42.4912 48.6591 42.3022C48.8499 42.1143 48.9361 41.9253 48.9618 41.7324C48.9886 41.5313 48.9535 41.2952 48.8487 41.0165L48.8486 41.0163C48.6363 40.451 48.4314 39.8891 48.2273 39.3292C47.908 38.4535 47.5906 37.5829 47.2497 36.713L47.2492 36.7116C47.1528 36.4629 47.1104 36.223 47.142 35.9759C47.173 35.733 47.2711 35.519 47.3955 35.3161L47.3955 35.3161C49.1355 32.4779 49.4715 29.5018 48.2913 26.3916L48.2912 26.3914C47.308 23.7946 45.5195 21.8252 43.1838 20.3383L43.1834 20.338C39.7358 18.1365 35.9411 17.3426 31.8699 17.688L31.8677 17.6882C31.7327 17.6988 31.5787 17.6953 31.4385 17.6922C31.3758 17.6908 31.316 17.6894 31.2618 17.6894H30.6878L30.8865 17.1509C30.9037 17.1044 30.9198 17.0604 30.9352 17.0183C30.9803 16.8953 31.0191 16.7892 31.0589 16.6898M42.5142 40.6916L8.48866 1.88835M42.5142 40.6916C42.3261 40.6178 42.1243 40.5851 41.9224 40.5957C41.7242 40.6061 41.5304 40.6581 41.3537 40.7482C34.8955 43.574 28.7474 43.1226 22.9847 39.0151L22.9843 39.0148C20.5262 37.2671 18.959 34.8602 18.4313 31.8439L18.4311 31.8429C18.1015 29.9875 18.2885 28.0772 18.9717 26.3211L18.9719 26.3204C18.9839 26.2895 18.997 26.2564 19.0105 26.222C19.0438 26.1377 19.0803 26.0453 19.1118 25.9566L19.1304 25.9042L19.134 25.8489C19.1395 25.7644 19.1347 25.6795 19.1195 25.5962L19.0541 25.2363L18.6897 25.2694C18.5814 25.2793 18.4779 25.2898 18.3771 25.3001C18.1748 25.3207 17.9832 25.3402 17.7842 25.3509C13.2779 25.5782 9.15611 24.5682 5.6018 21.7411C3.15092 19.7898 1.55582 17.3291 1.13956 14.1924L1.13561 14.1626L1.12726 14.1338C1.1113 14.0786 1.09063 14.0251 1.06553 13.9736V11.9922C1.0834 11.9539 1.09838 11.9143 1.11031 11.8737L1.1192 11.8434L1.12323 11.8121C1.33005 10.2087 1.94281 8.74995 2.81131 7.36357L2.81622 7.35573L2.82076 7.34768C2.87994 7.24272 2.91765 7.12703 2.93168 7.00735C2.94572 6.88768 2.9358 6.76641 2.9025 6.6506L2.89846 6.63656L2.89341 6.62284C2.40602 5.30008 1.90879 3.97711 1.41209 2.65557C1.29654 2.34812 1.18101 2.04075 1.06565 1.73348L1.06662 1.15033C1.31841 0.710551 1.52614 0.522293 1.7263 0.447087C1.93995 0.36681 2.24629 0.377174 2.78848 0.573268L42.5142 40.6916ZM31.0589 16.6898C31.059 16.6894 31.0592 16.6889 31.0594 16.6885L31.4308 16.8371L31.0583 16.6911C31.0585 16.6907 31.0587 16.6903 31.0589 16.6898ZM31.0589 16.6898C31.7458 14.9357 31.9365 13.0262 31.6099 11.1709L31.6097 11.1697C31.0845 8.13297 29.5052 5.71963 27.0351 3.96266L27.035 3.96255C21.2716 -0.14085 15.1186 -0.580214 8.66138 2.24938M8.66138 2.24938C8.66602 2.247 8.67066 2.24458 8.67528 2.24215L8.48866 1.88835M8.66138 2.24938C8.65738 2.25113 8.65339 2.25288 8.64939 2.25463L8.48866 1.88835M8.66138 2.24938C8.49182 2.33633 8.30584 2.38677 8.11547 2.39734C7.92113 2.40814 7.72674 2.37716 7.54539 2.30648M8.48866 1.88835C8.36629 1.9529 8.23142 1.99028 8.09328 1.99796C7.95513 2.00563 7.81696 1.98342 7.68818 1.93282M7.54539 2.30648C7.54638 2.30685 7.54737 2.30722 7.54836 2.30759L7.68818 1.93282M7.54539 2.30648C6.3064 1.84424 5.06784 1.39688 3.82577 0.948248C3.48035 0.823485 3.13466 0.698623 2.78861 0.573317L7.68818 1.93282M7.54539 2.30648C7.54423 2.30603 7.54307 2.30557 7.5419 2.30512L7.68818 1.93282M3.84997 3.17828L4.65832 3.46864C4.9525 3.57431 5.24203 3.67568 5.52738 3.77558C6.21185 4.01522 6.87222 4.24642 7.51492 4.50834C8.05224 4.72205 8.50016 4.684 9.027 4.40016L9.02747 4.39991C11.7925 2.91497 14.7513 2.35901 17.8658 2.62829L3.84997 3.17828ZM3.84997 3.17828L4.14794 3.98385C4.2328 4.21328 4.31277 4.44196 4.39186 4.66815C4.56939 5.17579 4.74251 5.67086 4.9567 6.1336M3.84997 3.17828L4.9567 6.1336M4.9567 6.1336C5.15064 6.55305 5.20915 6.90817 5.16787 7.24113C5.1261 7.57809 4.97753 7.92955 4.69589 8.33239L4.69585 8.33244C2.53866 11.4189 2.63798 14.947 4.84621 17.987L4.84676 17.9877C5.83694 19.3442 7.1122 20.4673 8.58288 21.2781C12.102 23.2472 15.8614 23.7444 19.7761 22.9649C22.8845 22.3468 25.6084 20.9487 27.6602 18.4194L27.6603 18.4193C29.0702 16.6803 29.8305 14.6676 29.6659 12.3828L29.6659 12.3825C29.467 9.65227 28.12 7.51498 26.0917 5.83198L26.0913 5.8316C23.7 3.85333 20.9084 2.88935 17.8659 2.6283L4.9567 6.1336ZM18.6373 26.078C18.6797 26.0739 18.7213 26.0699 18.7622 26.0661L18.7402 25.8247L18.7401 25.8231L18.7362 25.7805C18.7362 25.7946 18.7358 25.8087 18.7349 25.8228C18.7058 25.9046 18.6737 25.9859 18.6415 26.0673C18.6401 26.0709 18.6387 26.0745 18.6373 26.078ZM45.3826 39.5261L46.1918 39.8205L44.5612 36.562L44.9335 36.4157C44.9335 36.4155 44.9334 36.4154 44.9334 36.4152C44.8246 36.1382 44.7896 35.8973 44.8154 35.6822C44.841 35.4699 44.9289 35.2562 45.1082 35.0351L45.1083 35.0352L45.1133 35.0287C45.2082 34.9066 45.297 34.7799 45.3792 34.649C46.8143 32.4753 47.3536 30.1098 46.4999 27.5367L46.4998 27.5362C45.8365 25.5463 44.6085 23.939 42.9452 22.7096L42.9451 22.7095C38.9768 19.779 34.5422 19.1143 29.8266 20.1179L29.8262 20.118C29.6276 20.1604 29.3836 20.2126 29.1529 20.2921C28.9242 20.3709 28.6726 20.4879 28.4744 20.6814C26.8782 22.2373 24.9804 23.4502 22.898 24.2453C22.6742 24.3248 22.474 24.4592 22.3157 24.6364L22.3062 24.647L22.2975 24.6583C20.7474 26.6649 20.0176 28.9376 20.4887 31.506L20.4888 31.5063C20.9953 34.2566 22.5628 36.3496 24.8419 37.8074L24.8419 37.8074C30.0933 41.1661 35.5671 41.2872 41.0986 38.5455L41.0992 38.5452C41.5721 38.3098 41.9644 38.2694 42.4124 38.4343C43.1288 38.7108 43.8523 38.9723 44.625 39.2517C44.872 39.341 45.1241 39.4321 45.3826 39.5261Z" fill="#254CAC" stroke="#C8E8F6" stroke-width="0.8"/>
<path d="M29.2971 30.0847C29.2971 30.5599 29.3047 31.0351 29.2971 31.5103C29.2968 31.6972 29.2591 31.8822 29.1861 32.0543C29.1131 32.2264 29.0063 32.382 28.8721 32.5121C28.7379 32.6422 28.5789 32.744 28.4046 32.8116C28.2304 32.8791 28.0443 32.9111 27.8575 32.9055C27.6716 32.9072 27.4872 32.8718 27.3151 32.8013C27.1431 32.7309 26.9868 32.6268 26.8555 32.4953C26.7242 32.3637 26.6204 32.2072 26.5503 32.0351C26.4801 31.8629 26.4451 31.6784 26.4471 31.4925C26.4382 30.5269 26.4369 29.5612 26.4471 28.5956C26.447 28.4092 26.4843 28.2247 26.5566 28.053C26.6289 27.8812 26.7348 27.7256 26.8681 27.5954C27.0014 27.4652 27.1594 27.3629 27.3328 27.2947C27.5062 27.2264 27.6915 27.1935 27.8778 27.1979C28.0644 27.1952 28.2498 27.2299 28.4228 27.2999C28.5958 27.37 28.753 27.474 28.8852 27.6058C29.0174 27.7376 29.1218 27.8946 29.1923 28.0674C29.2628 28.2402 29.298 28.4254 29.2958 28.6121C29.3034 29.1038 29.2971 29.5943 29.2971 30.0847Z" fill="#254CAC"/>
<path d="M35.0038 30.0176C35.0038 30.5094 35.0038 30.9998 35.0038 31.4903C35.0023 31.6773 34.964 31.8622 34.891 32.0345C34.8181 32.2067 34.7119 32.3629 34.5786 32.4941C34.4452 32.6253 34.2874 32.729 34.114 32.7992C33.9406 32.8693 33.7551 32.9047 33.568 32.9032C33.381 32.9017 33.1961 32.8634 33.0238 32.7904C32.8516 32.7174 32.6954 32.6113 32.5642 32.4779C32.433 32.3446 32.3294 32.1867 32.2592 32.0134C32.189 31.84 32.1536 31.6545 32.1551 31.4674C32.1475 30.517 32.1475 29.567 32.1551 28.6174C32.1528 28.4312 32.1876 28.2464 32.2577 28.0738C32.3277 27.9013 32.4315 27.7445 32.5631 27.6126C32.6946 27.4807 32.8511 27.3765 33.0235 27.306C33.1958 27.2355 33.3806 27.2001 33.5668 27.202C34.3825 27.202 34.9924 27.8055 35.0038 28.6403C35.0089 29.1003 35.0038 29.559 35.0038 30.0176Z" fill="#254CAC"/>
<path d="M37.8589 30.0507C37.8589 29.5603 37.85 29.0685 37.8589 28.5781C37.87 28.2082 38.0247 27.8571 38.2903 27.5994C38.5558 27.3417 38.9113 27.1975 39.2814 27.1975C39.6514 27.1975 40.0069 27.3417 40.2725 27.5994C40.538 27.8571 40.6928 28.2082 40.7038 28.5781C40.7174 29.5607 40.7174 30.5424 40.7038 31.5233C40.6928 31.8932 40.538 32.2443 40.2725 32.502C40.0069 32.7597 39.6514 32.9039 39.2814 32.9039C38.9113 32.9039 38.5558 32.7597 38.2903 32.502C38.0247 32.2443 37.87 31.8932 37.8589 31.5233C37.85 31.0342 37.8589 30.5424 37.8589 30.0507Z" fill="#254CAC"/>
<path d="M20.7425 10.4748C20.6624 11.8725 19.853 13.1761 18.2686 13.9626C18.0145 14.0897 17.8874 14.1952 17.8747 14.5052C17.8366 15.2676 17.1695 15.8152 16.3868 15.786C16.0277 15.7702 15.6881 15.6179 15.4373 15.3603C15.1866 15.1027 15.0436 14.7592 15.0374 14.3997C14.993 12.969 15.599 12.0123 16.9268 11.4163C17.5621 11.1305 17.9433 10.5625 17.8823 9.97674C17.8507 9.66769 17.7216 9.37669 17.5138 9.14578C17.306 8.91487 17.0301 8.75602 16.7261 8.69216C15.8849 8.4914 15.1137 9.16101 15.0362 10.1559C14.951 11.2321 13.8609 11.8407 12.9244 11.3338C12.3247 11.0085 12.082 10.4024 12.2014 9.52568C12.5127 7.23858 14.5139 5.64651 16.876 5.80787C19.0068 5.95272 20.7425 7.88023 20.7425 10.4748Z" fill="#254CAC"/>
<path d="M16.458 17.2179C16.6436 17.2154 16.8278 17.2496 17.0001 17.3186C17.1723 17.3876 17.3293 17.49 17.4618 17.6199C17.5943 17.7499 17.6998 17.9047 17.7722 18.0756C17.8446 18.2465 17.8825 18.43 17.8836 18.6156C17.8893 18.8055 17.8565 18.9946 17.7872 19.1716C17.7178 19.3485 17.6135 19.5096 17.4803 19.6452C17.3471 19.7807 17.1879 19.8879 17.0122 19.9604C16.8365 20.0328 16.648 20.0689 16.458 20.0666C16.268 20.0689 16.0795 20.0328 15.9038 19.9604C15.7281 19.8879 15.5689 19.7807 15.4357 19.6452C15.3025 19.5096 15.1981 19.3485 15.1288 19.1716C15.0595 18.9946 15.0267 18.8055 15.0324 18.6156C15.0337 18.43 15.0717 18.2466 15.1441 18.0758C15.2166 17.905 15.3221 17.7502 15.4546 17.6203C15.5871 17.4904 15.7439 17.388 15.9161 17.319C16.0883 17.2499 16.2725 17.2156 16.458 17.2179Z" fill="#254CAC"/>
</svg>
