<svg width="57" height="13" viewBox="0 0 57 13" fill="none" xmlns="http://www.w3.org/2000/svg">
<path d="M8.46842 12V3.645H8.40842L5.45342 12H4.43342L1.49342 3.645H1.43342V12H0.293418V1.68H2.00342L4.92842 10.02H5.01842L7.95842 1.68H9.63842V12H8.46842ZM17.5122 8.565H12.9222C12.9222 9.345 12.9622 9.905 13.0422 10.245C13.1322 10.585 13.3222 10.82 13.6122 10.95C13.9122 11.08 14.4022 11.145 15.0822 11.145C15.7222 11.145 16.4472 11.09 17.2572 10.98V11.91C16.9872 11.97 16.6222 12.02 16.1622 12.06C15.7122 12.1 15.2722 12.12 14.8422 12.12C13.9222 12.12 13.2472 12.005 12.8172 11.775C12.3872 11.535 12.1022 11.15 11.9622 10.62C11.8322 10.09 11.7672 9.28 11.7672 8.19C11.7672 7.11 11.8272 6.31 11.9472 5.79C12.0672 5.26 12.3372 4.87 12.7572 4.62C13.1872 4.36 13.8622 4.23 14.7822 4.23C15.6422 4.23 16.2622 4.355 16.6422 4.605C17.0222 4.845 17.2622 5.225 17.3622 5.745C17.4622 6.255 17.5122 7.065 17.5122 8.175V8.565ZM14.7522 5.205C14.1822 5.205 13.7722 5.265 13.5222 5.385C13.2822 5.505 13.1222 5.735 13.0422 6.075C12.9622 6.405 12.9222 6.95 12.9222 7.71H16.4172V7.56C16.4172 6.85 16.3672 6.335 16.2672 6.015C16.1772 5.685 16.0172 5.47 15.7872 5.37C15.5672 5.26 15.2222 5.205 14.7522 5.205ZM27.9237 7.59C27.9237 6.86 27.8887 6.345 27.8187 6.045C27.7587 5.735 27.6337 5.53 27.4437 5.43C27.2537 5.33 26.9337 5.28 26.4837 5.28C25.9737 5.28 25.6037 5.38 25.3737 5.58C25.1437 5.77 24.9987 6.045 24.9387 6.405C24.8787 6.765 24.8487 7.305 24.8487 8.025V12H23.7087V7.59C23.7087 6.86 23.6737 6.345 23.6037 6.045C23.5437 5.735 23.4187 5.53 23.2287 5.43C23.0387 5.33 22.7187 5.28 22.2687 5.28C21.7687 5.28 21.3987 5.385 21.1587 5.595C20.9287 5.795 20.7837 6.08 20.7237 6.45C20.6637 6.81 20.6337 7.335 20.6337 8.025V12H19.4937V4.35H20.5137L20.5737 5.43H20.6487C20.7887 5.05 21.0187 4.755 21.3387 4.545C21.6587 4.335 22.1237 4.23 22.7337 4.23C23.3437 4.23 23.7987 4.325 24.0987 4.515C24.3987 4.695 24.6037 5 24.7137 5.43H24.8037C24.9437 5.05 25.1787 4.755 25.5087 4.545C25.8487 4.335 26.3237 4.23 26.9337 4.23C27.5337 4.23 27.9837 4.33 28.2837 4.53C28.5837 4.73 28.7887 5.035 28.8987 5.445C29.0087 5.855 29.0637 6.425 29.0637 7.155V12H27.9237V7.59ZM34.6749 12.12C34.1249 12.12 33.6599 12.04 33.2799 11.88C32.9099 11.71 32.6399 11.395 32.4699 10.935H32.3949L32.3349 12H31.3149V0.855H32.4549V5.295H32.5299C32.6999 4.915 32.9599 4.645 33.3099 4.485C33.6699 4.315 34.1299 4.23 34.6899 4.23C35.3699 4.23 35.8849 4.345 36.2349 4.575C36.5849 4.805 36.8299 5.195 36.9699 5.745C37.1099 6.295 37.1799 7.105 37.1799 8.175C37.1799 9.245 37.1049 10.06 36.9549 10.62C36.8149 11.17 36.5699 11.56 36.2199 11.79C35.8699 12.01 35.3549 12.12 34.6749 12.12ZM34.2399 11.085C34.7999 11.085 35.1949 11.025 35.4249 10.905C35.6649 10.775 35.8249 10.515 35.9049 10.125C35.9949 9.735 36.0399 9.085 36.0399 8.175C36.0399 7.265 35.9949 6.62 35.9049 6.24C35.8249 5.85 35.6649 5.59 35.4249 5.46C35.1949 5.33 34.7999 5.265 34.2399 5.265C33.8099 5.265 33.4649 5.33 33.2049 5.46C32.9549 5.59 32.7799 5.795 32.6799 6.075C32.5899 6.315 32.5299 6.6 32.4999 6.93C32.4699 7.25 32.4549 7.665 32.4549 8.175C32.4549 8.665 32.4699 9.07 32.4999 9.39C32.5299 9.71 32.5849 9.99 32.6649 10.23C32.7649 10.53 32.9399 10.75 33.1899 10.89C33.4499 11.02 33.7999 11.085 34.2399 11.085ZM44.6265 8.565H40.0365C40.0365 9.345 40.0765 9.905 40.1565 10.245C40.2465 10.585 40.4365 10.82 40.7265 10.95C41.0265 11.08 41.5165 11.145 42.1965 11.145C42.8365 11.145 43.5615 11.09 44.3715 10.98V11.91C44.1015 11.97 43.7365 12.02 43.2765 12.06C42.8265 12.1 42.3865 12.12 41.9565 12.12C41.0365 12.12 40.3615 12.005 39.9315 11.775C39.5015 11.535 39.2165 11.15 39.0765 10.62C38.9465 10.09 38.8815 9.28 38.8815 8.19C38.8815 7.11 38.9415 6.31 39.0615 5.79C39.1815 5.26 39.4515 4.87 39.8715 4.62C40.3015 4.36 40.9765 4.23 41.8965 4.23C42.7565 4.23 43.3765 4.355 43.7565 4.605C44.1365 4.845 44.3765 5.225 44.4765 5.745C44.5765 6.255 44.6265 7.065 44.6265 8.175V8.565ZM41.8665 5.205C41.2965 5.205 40.8865 5.265 40.6365 5.385C40.3965 5.505 40.2365 5.735 40.1565 6.075C40.0765 6.405 40.0365 6.95 40.0365 7.71H43.5315V7.56C43.5315 6.85 43.4815 6.335 43.3815 6.015C43.2915 5.685 43.1315 5.47 42.9015 5.37C42.6815 5.26 42.3365 5.205 41.8665 5.205ZM46.6079 4.35H47.6279L47.6879 5.805H47.7779C47.9279 5.205 48.1879 4.795 48.5579 4.575C48.9379 4.345 49.4329 4.23 50.0429 4.23V5.385C49.4429 5.385 48.9729 5.495 48.6329 5.715C48.3029 5.925 48.0729 6.25 47.9429 6.69C47.8129 7.12 47.7479 7.695 47.7479 8.415V12H46.6079V4.35ZM53.7351 12.12C53.3651 12.12 52.9501 12.1 52.4901 12.06C52.0301 12.02 51.6351 11.975 51.3051 11.925V10.98C52.0951 11.08 52.8801 11.13 53.6601 11.13C54.1001 11.13 54.4251 11.09 54.6351 11.01C54.8451 10.93 54.9851 10.805 55.0551 10.635C55.1251 10.465 55.1601 10.22 55.1601 9.9C55.1601 9.55 55.1351 9.3 55.0851 9.15C55.0451 9 54.9651 8.9 54.8451 8.85C54.7351 8.8 54.5501 8.76 54.2901 8.73L52.5501 8.505C51.9801 8.435 51.5951 8.255 51.3951 7.965C51.1951 7.665 51.0951 7.165 51.0951 6.465C51.0951 5.845 51.2001 5.375 51.4101 5.055C51.6201 4.725 51.9151 4.505 52.2951 4.395C52.6751 4.285 53.1751 4.23 53.7951 4.23C54.1351 4.23 54.5051 4.25 54.9051 4.29C55.3051 4.33 55.6401 4.38 55.9101 4.44V5.385C55.3201 5.275 54.6101 5.22 53.7801 5.22C53.3901 5.22 53.0901 5.245 52.8801 5.295C52.6701 5.345 52.5051 5.455 52.3851 5.625C52.2751 5.795 52.2201 6.055 52.2201 6.405C52.2201 6.725 52.2401 6.96 52.2801 7.11C52.3301 7.25 52.4101 7.35 52.5201 7.41C52.6301 7.46 52.8101 7.5 53.0601 7.53L54.7851 7.74C55.1751 7.78 55.4701 7.86 55.6701 7.98C55.8801 8.1 56.0351 8.305 56.1351 8.595C56.2351 8.885 56.2851 9.31 56.2851 9.87C56.2851 10.47 56.1901 10.935 56.0001 11.265C55.8201 11.585 55.5451 11.81 55.1751 11.94C54.8151 12.06 54.3351 12.12 53.7351 12.12Z" fill="#254CAC"/>
</svg>
