<svg width="41" height="48" viewBox="0 0 41 48" fill="none" xmlns="http://www.w3.org/2000/svg">
<path d="M40.1358 41.8976C40.6478 42.4014 40.6971 42.7706 40.2987 43.3546C38.7936 45.56 36.7457 46.8961 34.0724 47.2233C34.0403 47.2233 34.0132 47.2764 33.9836 47.3048H31.7691C31.346 47.0912 30.8673 47.0887 30.4245 46.9442C27.5106 45.9885 25.5634 44.0597 24.5831 41.1579C24.4708 40.8208 24.3363 40.7258 23.9922 40.727C19.9778 40.7406 15.9623 40.7356 11.9467 40.7356C10.998 40.7356 10.6662 40.4096 10.6649 39.47C10.6649 37.2992 10.6551 35.1272 10.6748 32.9564C10.6748 32.5859 10.5675 32.5106 10.2184 32.5131C7.18849 32.5267 4.15739 32.5205 1.12629 32.5205C0.331818 32.5205 0.0160018 32.2007 0.0160018 31.4092C0.0160018 28.3753 0.0653488 25.3401 0.00119853 22.3075C-0.0617181 19.3192 2.35995 16.7336 5.49715 16.82C5.62915 16.82 5.76115 16.82 5.99061 16.82C5.04379 16.0845 4.23652 15.1849 3.60719 14.1639C0.257805 8.67896 3.46778 1.38376 9.7619 0.178591C15.0666 -0.83765 19.9692 2.58152 20.8525 7.93191C20.8981 8.2085 20.9463 8.26531 21.2325 8.24308C25.0951 7.94179 28.1545 9.36922 30.2382 12.6501C32.6709 16.4866 31.8789 21.5295 28.4666 24.5375L27.9288 25.0154C28.7923 25.0314 29.5695 25.024 30.3122 25.3068C32.233 26.0353 33.4161 27.3887 33.796 29.4125C33.8553 29.7311 34.0243 29.7965 34.2833 29.8373C36.8333 30.2287 38.817 31.5228 40.274 33.6417C40.7033 34.2665 40.6441 34.6518 40.0606 35.1556C39.3759 35.3482 39.1156 35.2544 38.7035 34.653C37.444 32.8354 35.7094 31.8031 33.5185 31.6166C29.0699 31.2388 25.4701 35.1272 26.1264 39.5552C26.626 42.9188 29.5436 45.4711 32.9288 45.4427C35.364 45.4217 37.3033 44.3919 38.7011 42.3767C39.1452 41.7358 39.4548 41.6309 40.1358 41.8976ZM29.757 17.551C29.7624 16.5702 29.5743 15.598 29.2036 14.6901C28.8329 13.7821 28.2868 12.9564 27.5967 12.2601C26.9065 11.5638 26.0859 11.0107 25.1818 10.6324C24.2777 10.2541 23.3079 10.0582 22.328 10.0558C21.344 10.0493 20.3684 10.2369 19.457 10.6081C18.5456 10.9792 17.7162 11.5266 17.0163 12.2188C16.3163 12.911 15.7596 13.7345 15.3778 14.6423C14.9961 15.55 14.7969 16.5242 14.7915 17.509C14.7792 21.6086 18.1409 25.0018 22.2404 25.0277C23.2244 25.031 24.1995 24.8401 25.1099 24.4661C26.0203 24.0921 26.8481 23.5423 27.5461 22.8479C28.2441 22.1536 28.7987 21.3285 29.178 20.4196C29.5574 19.5108 29.7541 18.536 29.757 17.551ZM22.323 26.8886C20.2468 26.8886 18.1705 26.8886 16.093 26.8886C14.0415 26.8886 12.5722 28.3296 12.5598 30.3794C12.5426 33.0749 12.5598 35.7693 12.5487 38.4636C12.5487 38.7859 12.6339 38.8773 12.9571 38.8748C14.604 38.8587 16.2497 38.8674 17.8917 38.8674C19.8656 38.8674 21.8296 38.8674 23.7985 38.8736C24.0946 38.8736 24.2056 38.8044 24.1883 38.4895C24.1755 38.0437 24.204 37.5977 24.2734 37.1572C24.7447 33.5281 27.9571 30.3077 31.6051 29.841C31.9147 29.8015 31.99 29.7175 31.9011 29.4063C31.7027 28.6908 31.2777 28.059 30.69 27.6057C30.1024 27.1524 29.3837 26.9021 28.6418 26.8923C26.5384 26.8824 24.4313 26.8886 22.323 26.8886ZM4.12779 9.3581C4.14082 9.81831 4.18202 10.2773 4.25115 10.7324C4.89636 14.5677 8.85147 17.3942 12.6622 16.7447C12.8966 16.7052 12.9941 16.6422 13.0323 16.3915C13.5258 12.9045 15.4059 10.441 18.5838 8.97532C18.9946 8.78516 19.0773 8.58759 19.0217 8.19245C18.7597 6.4919 17.9211 4.93336 16.6467 3.77854C15.3723 2.62372 13.7398 1.94294 12.0232 1.85051C11.0056 1.79718 9.98777 1.95189 9.03184 2.3052C8.07592 2.65851 7.20192 3.20302 6.46313 3.90551C5.72435 4.60801 5.13627 5.45377 4.73476 6.39121C4.33325 7.32866 4.12673 8.33815 4.12779 9.3581ZM16.6075 25.0166C16.5794 24.9658 16.5459 24.9182 16.5075 24.8746C14.6373 23.4083 13.3991 21.2807 13.0471 18.929C13.0015 18.645 12.8522 18.6821 12.6696 18.6821C10.2245 18.6821 7.77942 18.6697 5.33554 18.6821C4.87709 18.6781 4.42247 18.7659 3.99841 18.9403C3.57434 19.1147 3.18939 19.3722 2.86619 19.6976C2.54298 20.0231 2.28805 20.4099 2.11637 20.8354C1.94469 21.2609 1.85973 21.7165 1.86649 22.1753C1.85909 24.8697 1.87266 27.5628 1.85416 30.2559C1.85416 30.6263 1.96765 30.6745 2.29334 30.672C4.87662 30.6597 7.4599 30.6646 10.0432 30.6646C10.66 30.6646 10.66 30.6646 10.702 30.0398C10.7564 28.9118 11.1715 27.8312 11.8861 26.9573C12.6006 26.0834 13.5768 25.4624 14.6706 25.1858C15.2973 25.0191 15.9339 25.0376 16.6075 25.0166Z" fill="#254CAC"/>
<path d="M36.0526 38.5126C36.0583 38.7536 35.9687 38.9872 35.8033 39.1624C35.6379 39.3377 35.41 39.4405 35.1693 39.4486C34.8476 39.4671 34.5251 39.4671 34.2033 39.4486C33.9702 39.4363 33.8715 39.498 33.89 39.7499C33.9048 40.0419 33.9048 40.3346 33.89 40.6266C33.8752 41.2131 33.4989 41.6144 32.9623 41.6144C32.4256 41.6144 32.0506 41.2242 32.0296 40.6377C32.0148 40.2574 32.1912 39.7635 31.963 39.5264C31.7348 39.2893 31.2364 39.4696 30.8527 39.4535C30.2828 39.4301 29.8547 39.0461 29.8411 38.5324C29.8276 38.0187 30.2692 37.61 30.8651 37.5865C31.2438 37.5729 31.7434 37.7606 31.963 37.505C32.1481 37.2889 32.0198 36.8024 32.0272 36.4369C32.0383 35.8195 32.4244 35.396 32.9598 35.4022C33.4952 35.4083 33.8653 35.8467 33.8912 36.4517C33.9073 36.8222 33.7148 37.3297 33.9837 37.5433C34.2132 37.7236 34.6919 37.5853 35.0595 37.5915C35.6591 37.6038 36.0501 37.9693 36.0526 38.5126Z" fill="#254CAC"/>
</svg>
