<svg width="82" height="12" viewBox="0 0 82 12" fill="none" xmlns="http://www.w3.org/2000/svg">
<path d="M0.204 1.368H3.76C4.488 1.368 5.034 1.494 5.398 1.746C5.762 1.998 6 2.33867 6.112 2.768C6.224 3.188 6.28 3.734 6.28 4.406C6.28 5.06867 6.224 5.61 6.112 6.03C6 6.45 5.75733 6.79067 5.384 7.052C5.02 7.31333 4.474 7.444 3.746 7.444H1.324V11H0.204V1.368ZM3.452 6.464C3.96533 6.464 4.34333 6.394 4.586 6.254C4.82867 6.114 4.98267 5.904 5.048 5.624C5.12267 5.344 5.16 4.938 5.16 4.406C5.16 3.86467 5.12733 3.45867 5.062 3.188C4.99667 2.91733 4.84267 2.712 4.6 2.572C4.35733 2.432 3.97933 2.362 3.466 2.362H1.324V6.464H3.452ZM7.95234 11V0.598H9.01634V11H7.95234ZM12.8182 11.112C12.0716 11.112 11.5349 10.9627 11.2082 10.664C10.8816 10.356 10.7182 9.81 10.7182 9.026C10.7182 8.48467 10.7742 8.06467 10.8862 7.766C11.0076 7.458 11.2082 7.23867 11.4882 7.108C11.7776 6.968 12.1789 6.898 12.6922 6.898C12.9536 6.898 13.7142 6.92133 14.9742 6.968V6.492C14.9742 5.91333 14.9276 5.50267 14.8342 5.26C14.7409 5.008 14.5682 4.84933 14.3162 4.784C14.0736 4.70933 13.6582 4.672 13.0702 4.672C12.8089 4.672 12.4776 4.686 12.0762 4.714C11.6842 4.742 11.3669 4.77467 11.1242 4.812V3.944C11.7776 3.81333 12.5382 3.748 13.4062 3.748C14.1529 3.748 14.7082 3.832 15.0722 4C15.4456 4.15867 15.6976 4.42933 15.8282 4.812C15.9682 5.19467 16.0382 5.75467 16.0382 6.492V11H15.0862L15.0302 10.006H14.9602C14.7922 10.454 14.5169 10.7527 14.1342 10.902C13.7609 11.042 13.3222 11.112 12.8182 11.112ZM13.1962 10.188C13.5882 10.188 13.9056 10.1507 14.1482 10.076C14.4002 9.992 14.5869 9.82867 14.7082 9.586C14.8856 9.222 14.9742 8.732 14.9742 8.116V7.71H12.9722C12.6269 7.71 12.3702 7.74267 12.2022 7.808C12.0436 7.864 11.9316 7.98067 11.8662 8.158C11.8009 8.326 11.7682 8.592 11.7682 8.956C11.7682 9.31067 11.8056 9.572 11.8802 9.74C11.9549 9.908 12.0902 10.0247 12.2862 10.09C12.4822 10.1553 12.7856 10.188 13.1962 10.188ZM22.3662 6.884C22.3662 6.20267 22.3289 5.722 22.2542 5.442C22.1889 5.15267 22.0536 4.96133 21.8482 4.868C21.6522 4.77467 21.3209 4.728 20.8542 4.728C20.3409 4.728 19.9629 4.826 19.7202 5.022C19.4869 5.20867 19.3376 5.47467 19.2722 5.82C19.2162 6.16533 19.1882 6.65533 19.1882 7.29V11H18.1242V3.86H19.0762L19.1322 4.868H19.2022C19.3422 4.504 19.5709 4.22867 19.8882 4.042C20.2149 3.846 20.6816 3.748 21.2882 3.748C21.8949 3.748 22.3476 3.84133 22.6462 4.028C22.9542 4.21467 23.1596 4.49933 23.2622 4.882C23.3742 5.26467 23.4302 5.80133 23.4302 6.492V11H22.3662V6.884ZM26.0524 11V4.784H24.8064V3.86H26.0524V1.788H27.1164V3.86H28.5864V4.784H27.1164V11H26.0524ZM32.0497 11.112C31.7044 11.112 31.3171 11.0933 30.8877 11.056C30.4584 11.0187 30.0897 10.9767 29.7817 10.93V10.048C30.5191 10.1413 31.2517 10.188 31.9797 10.188C32.3904 10.188 32.6937 10.1507 32.8897 10.076C33.0857 10.0013 33.2164 9.88467 33.2817 9.726C33.3471 9.56733 33.3797 9.33867 33.3797 9.04C33.3797 8.71333 33.3564 8.48 33.3097 8.34C33.2724 8.2 33.1977 8.10667 33.0857 8.06C32.9831 8.01333 32.8104 7.976 32.5677 7.948L30.9437 7.738C30.4117 7.67267 30.0524 7.50467 29.8657 7.234C29.6791 6.954 29.5857 6.48733 29.5857 5.834C29.5857 5.25533 29.6837 4.81667 29.8797 4.518C30.0757 4.21 30.3511 4.00467 30.7057 3.902C31.0604 3.79933 31.5271 3.748 32.1057 3.748C32.4231 3.748 32.7684 3.76667 33.1417 3.804C33.5151 3.84133 33.8277 3.888 34.0797 3.944V4.826C33.5291 4.72333 32.8664 4.672 32.0917 4.672C31.7277 4.672 31.4477 4.69533 31.2517 4.742C31.0557 4.78867 30.9017 4.89133 30.7897 5.05C30.6871 5.20867 30.6357 5.45133 30.6357 5.778C30.6357 6.07667 30.6544 6.296 30.6917 6.436C30.7384 6.56667 30.8131 6.66 30.9157 6.716C31.0184 6.76267 31.1864 6.8 31.4197 6.828L33.0297 7.024C33.3937 7.06133 33.6691 7.136 33.8557 7.248C34.0517 7.36 34.1964 7.55133 34.2897 7.822C34.3831 8.09267 34.4297 8.48933 34.4297 9.012C34.4297 9.572 34.3411 10.006 34.1637 10.314C33.9957 10.6127 33.7391 10.8227 33.3937 10.944C33.0577 11.056 32.6097 11.112 32.0497 11.112ZM39.2645 1.368H42.8205C43.5485 1.368 44.0945 1.494 44.4585 1.746C44.8225 1.998 45.0605 2.33867 45.1725 2.768C45.2845 3.188 45.3405 3.734 45.3405 4.406C45.3405 5.06867 45.2845 5.61 45.1725 6.03C45.0605 6.45 44.8179 6.79067 44.4445 7.052C44.0805 7.31333 43.5345 7.444 42.8065 7.444H40.3845V11H39.2645V1.368ZM42.5125 6.464C43.0259 6.464 43.4039 6.394 43.6465 6.254C43.8892 6.114 44.0432 5.904 44.1085 5.624C44.1832 5.344 44.2205 4.938 44.2205 4.406C44.2205 3.86467 44.1879 3.45867 44.1225 3.188C44.0572 2.91733 43.9032 2.712 43.6605 2.572C43.4179 2.432 43.0399 2.362 42.5265 2.362H40.3845V6.464H42.5125ZM47.0129 11V0.598H48.0769V11H47.0129ZM51.8788 11.112C51.1321 11.112 50.5954 10.9627 50.2688 10.664C49.9421 10.356 49.7788 9.81 49.7788 9.026C49.7788 8.48467 49.8348 8.06467 49.9468 7.766C50.0681 7.458 50.2688 7.23867 50.5488 7.108C50.8381 6.968 51.2394 6.898 51.7528 6.898C52.0141 6.898 52.7748 6.92133 54.0348 6.968V6.492C54.0348 5.91333 53.9881 5.50267 53.8948 5.26C53.8014 5.008 53.6288 4.84933 53.3768 4.784C53.1341 4.70933 52.7188 4.672 52.1308 4.672C51.8694 4.672 51.5381 4.686 51.1368 4.714C50.7448 4.742 50.4274 4.77467 50.1848 4.812V3.944C50.8381 3.81333 51.5988 3.748 52.4668 3.748C53.2134 3.748 53.7688 3.832 54.1328 4C54.5061 4.15867 54.7581 4.42933 54.8888 4.812C55.0288 5.19467 55.0988 5.75467 55.0988 6.492V11H54.1468L54.0908 10.006H54.0208C53.8528 10.454 53.5774 10.7527 53.1948 10.902C52.8214 11.042 52.3828 11.112 51.8788 11.112ZM52.2568 10.188C52.6488 10.188 52.9661 10.1507 53.2088 10.076C53.4608 9.992 53.6474 9.82867 53.7688 9.586C53.9461 9.222 54.0348 8.732 54.0348 8.116V7.71H52.0328C51.6874 7.71 51.4308 7.74267 51.2628 7.808C51.1041 7.864 50.9921 7.98067 50.9268 8.158C50.8614 8.326 50.8288 8.592 50.8288 8.956C50.8288 9.31067 50.8661 9.572 50.9408 9.74C51.0154 9.908 51.1508 10.0247 51.3468 10.09C51.5428 10.1553 51.8461 10.188 52.2568 10.188ZM61.4268 6.884C61.4268 6.20267 61.3894 5.722 61.3148 5.442C61.2494 5.15267 61.1141 4.96133 60.9088 4.868C60.7128 4.77467 60.3814 4.728 59.9148 4.728C59.4014 4.728 59.0234 4.826 58.7808 5.022C58.5474 5.20867 58.3981 5.47467 58.3328 5.82C58.2768 6.16533 58.2488 6.65533 58.2488 7.29V11H57.1848V3.86H58.1368L58.1928 4.868H58.2628C58.4028 4.504 58.6314 4.22867 58.9488 4.042C59.2754 3.846 59.7421 3.748 60.3488 3.748C60.9554 3.748 61.4081 3.84133 61.7068 4.028C62.0148 4.21467 62.2201 4.49933 62.3228 4.882C62.4348 5.26467 62.4908 5.80133 62.4908 6.492V11H61.4268V6.884ZM65.1129 11V4.784H63.8669V3.86H65.1129V1.788H66.1769V3.86H67.6469V4.784H66.1769V11H65.1129ZM74.0659 7.794H69.7819C69.7819 8.522 69.8193 9.04467 69.8939 9.362C69.9779 9.67933 70.1553 9.89867 70.4259 10.02C70.7059 10.1413 71.1633 10.202 71.7979 10.202C72.3953 10.202 73.0719 10.1507 73.8279 10.048V10.916C73.5759 10.972 73.2353 11.0187 72.8059 11.056C72.3859 11.0933 71.9753 11.112 71.5739 11.112C70.7153 11.112 70.0853 11.0047 69.6839 10.79C69.2826 10.566 69.0166 10.2067 68.8859 9.712C68.7646 9.21733 68.7039 8.46133 68.7039 7.444C68.7039 6.436 68.7599 5.68933 68.8719 5.204C68.9839 4.70933 69.2359 4.34533 69.6279 4.112C70.0293 3.86933 70.6593 3.748 71.5179 3.748C72.3206 3.748 72.8993 3.86467 73.2539 4.098C73.6086 4.322 73.8326 4.67667 73.9259 5.162C74.0193 5.638 74.0659 6.394 74.0659 7.43V7.794ZM71.4899 4.658C70.9579 4.658 70.5753 4.714 70.3419 4.826C70.1179 4.938 69.9686 5.15267 69.8939 5.47C69.8193 5.778 69.7819 6.28667 69.7819 6.996H73.0439V6.856C73.0439 6.19333 72.9973 5.71267 72.9039 5.414C72.8199 5.106 72.6706 4.90533 72.4559 4.812C72.2506 4.70933 71.9286 4.658 71.4899 4.658ZM78.0012 11.112C77.3666 11.112 76.8812 11.0093 76.5452 10.804C76.2186 10.5893 75.9852 10.2253 75.8452 9.712C75.7146 9.19867 75.6492 8.44267 75.6492 7.444C75.6492 6.44533 75.7146 5.68933 75.8452 5.176C75.9759 4.65333 76.2046 4.28467 76.5312 4.07C76.8579 3.85533 77.3386 3.748 77.9732 3.748C78.4959 3.748 78.9206 3.82733 79.2472 3.986C79.5832 4.13533 79.8306 4.38733 79.9892 4.742H80.0592V0.598H81.1232V11H80.1712L80.1292 10.006H80.0452C79.8866 10.4353 79.6299 10.7293 79.2752 10.888C78.9299 11.0373 78.5052 11.112 78.0012 11.112ZM78.4072 10.146C78.8179 10.146 79.1399 10.0853 79.3732 9.964C79.6159 9.83333 79.7839 9.628 79.8772 9.348C79.9519 9.11467 79.9986 8.85333 80.0172 8.564C80.0452 8.26533 80.0592 7.85467 80.0592 7.332C80.0592 6.93067 80.0499 6.604 80.0312 6.352C80.0126 6.09067 79.9752 5.862 79.9192 5.666C79.8259 5.33 79.6579 5.08733 79.4152 4.938C79.1726 4.78867 78.8272 4.714 78.3792 4.714C77.8659 4.714 77.4972 4.77467 77.2732 4.896C77.0586 5.01733 76.9139 5.26 76.8392 5.624C76.7646 5.97867 76.7272 6.58067 76.7272 7.43C76.7272 8.27933 76.7646 8.886 76.8392 9.25C76.9139 9.614 77.0632 9.85667 77.2872 9.978C77.5112 10.09 77.8846 10.146 78.4072 10.146Z" fill="#254CAC"/>
</svg>
