<svg width="85" height="14" viewBox="0 0 85 14" fill="none" xmlns="http://www.w3.org/2000/svg">
<path d="M8.022 12.568V12.61H6.79L5.768 11.028C5.376 11.084 4.90467 11.112 4.354 11.112C3.25267 11.112 2.46867 10.9907 2.002 10.748C1.53533 10.496 1.23667 10.0527 1.106 9.418C0.984667 8.78333 0.924 7.70533 0.924 6.184C0.924 4.66267 0.984667 3.58467 1.106 2.95C1.23667 2.31533 1.53533 1.87667 2.002 1.634C2.46867 1.382 3.25267 1.256 4.354 1.256C5.45533 1.256 6.23467 1.382 6.692 1.634C7.15867 1.87667 7.45267 2.31533 7.574 2.95C7.70467 3.58467 7.77 4.66267 7.77 6.184C7.77 7.17333 7.74667 7.948 7.7 8.508C7.66267 9.05867 7.574 9.516 7.434 9.88C7.294 10.2347 7.07467 10.5053 6.776 10.692L8.022 12.568ZM4.354 10.118C4.746 10.118 5.01667 10.1133 5.166 10.104L3.78 7.948H4.942L6.16 9.782C6.36533 9.57667 6.496 9.222 6.552 8.718C6.61733 8.214 6.65 7.36933 6.65 6.184C6.65 4.83067 6.60333 3.902 6.51 3.398C6.41667 2.894 6.23 2.57667 5.95 2.446C5.67 2.31533 5.138 2.25 4.354 2.25C3.57 2.25 3.03333 2.31533 2.744 2.446C2.464 2.57667 2.27733 2.894 2.184 3.398C2.09067 3.902 2.044 4.83067 2.044 6.184C2.044 7.53733 2.09067 8.466 2.184 8.97C2.27733 9.474 2.464 9.79133 2.744 9.922C3.03333 10.0527 3.57 10.118 4.354 10.118ZM14.0433 9.992H13.9593C13.8193 10.356 13.5906 10.636 13.2733 10.832C12.956 11.0187 12.494 11.112 11.8873 11.112C11.2806 11.112 10.8233 11.0187 10.5153 10.832C10.2073 10.6453 9.99731 10.3607 9.88531 9.978C9.78265 9.59533 9.73131 9.05867 9.73131 8.368V3.86H10.7953V7.976C10.7953 8.648 10.8326 9.12867 10.9073 9.418C10.982 9.70733 11.1173 9.89867 11.3133 9.992C11.5186 10.0853 11.8546 10.132 12.3213 10.132C12.8346 10.132 13.208 10.0387 13.4413 9.852C13.6746 9.656 13.8193 9.39 13.8753 9.054C13.9406 8.70867 13.9733 8.214 13.9733 7.57V3.86H15.0373V11H14.0853L14.0433 9.992ZM17.1275 1.816V0.598H18.2615V1.816H17.1275ZM17.1555 11V3.86H18.2195V11H17.1555ZM19.8933 11V10.16L23.5193 4.784H20.0333V3.86H24.8493V4.7L21.2233 10.076H24.8773V11H19.8933ZM31.644 7.794H27.36C27.36 8.522 27.3974 9.04467 27.472 9.362C27.556 9.67933 27.7334 9.89867 28.004 10.02C28.284 10.1413 28.7414 10.202 29.376 10.202C29.9734 10.202 30.65 10.1507 31.406 10.048V10.916C31.154 10.972 30.8134 11.0187 30.384 11.056C29.964 11.0933 29.5534 11.112 29.152 11.112C28.2934 11.112 27.6634 11.0047 27.262 10.79C26.8607 10.566 26.5947 10.2067 26.464 9.712C26.3427 9.21733 26.282 8.46133 26.282 7.444C26.282 6.436 26.338 5.68933 26.45 5.204C26.562 4.70933 26.814 4.34533 27.206 4.112C27.6074 3.86933 28.2374 3.748 29.096 3.748C29.8987 3.748 30.4774 3.86467 30.832 4.098C31.1867 4.322 31.4107 4.67667 31.504 5.162C31.5974 5.638 31.644 6.394 31.644 7.43V7.794ZM29.068 4.658C28.536 4.658 28.1534 4.714 27.92 4.826C27.696 4.938 27.5467 5.15267 27.472 5.47C27.3974 5.778 27.36 6.28667 27.36 6.996H30.622V6.856C30.622 6.19333 30.5754 5.71267 30.482 5.414C30.398 5.106 30.2487 4.90533 30.034 4.812C29.8287 4.70933 29.5067 4.658 29.068 4.658ZM35.5654 11.112C35.22 11.112 34.8327 11.0933 34.4034 11.056C33.974 11.0187 33.6054 10.9767 33.2974 10.93V10.048C34.0347 10.1413 34.7674 10.188 35.4954 10.188C35.906 10.188 36.2094 10.1507 36.4054 10.076C36.6014 10.0013 36.732 9.88467 36.7974 9.726C36.8627 9.56733 36.8954 9.33867 36.8954 9.04C36.8954 8.71333 36.872 8.48 36.8254 8.34C36.788 8.2 36.7134 8.10667 36.6014 8.06C36.4987 8.01333 36.326 7.976 36.0834 7.948L34.4594 7.738C33.9274 7.67267 33.568 7.50467 33.3814 7.234C33.1947 6.954 33.1014 6.48733 33.1014 5.834C33.1014 5.25533 33.1994 4.81667 33.3954 4.518C33.5914 4.21 33.8667 4.00467 34.2214 3.902C34.576 3.79933 35.0427 3.748 35.6214 3.748C35.9387 3.748 36.284 3.76667 36.6574 3.804C37.0307 3.84133 37.3434 3.888 37.5954 3.944V4.826C37.0447 4.72333 36.382 4.672 35.6074 4.672C35.2434 4.672 34.9634 4.69533 34.7674 4.742C34.5714 4.78867 34.4174 4.89133 34.3054 5.05C34.2027 5.20867 34.1514 5.45133 34.1514 5.778C34.1514 6.07667 34.17 6.296 34.2074 6.436C34.254 6.56667 34.3287 6.66 34.4314 6.716C34.534 6.76267 34.702 6.8 34.9354 6.828L36.5454 7.024C36.9094 7.06133 37.1847 7.136 37.3714 7.248C37.5674 7.36 37.712 7.55133 37.8054 7.822C37.8987 8.09267 37.9454 8.48933 37.9454 9.012C37.9454 9.572 37.8567 10.006 37.6794 10.314C37.5114 10.6127 37.2547 10.8227 36.9094 10.944C36.5734 11.056 36.1254 11.112 35.5654 11.112ZM50.1022 5.652V6.604H48.6882V10.86C48.3988 10.9253 47.9928 10.9813 47.4702 11.028C46.9568 11.084 46.4668 11.112 46.0002 11.112C45.0108 11.112 44.2548 11.0093 43.7322 10.804C43.2188 10.5987 42.8688 10.3093 42.6822 9.936C42.5048 9.55333 42.4162 9.04933 42.4162 8.424C42.4162 7.68667 42.5375 7.15467 42.7802 6.828C43.0322 6.492 43.4242 6.254 43.9562 6.114V6.058C43.4522 5.918 43.0788 5.67533 42.8362 5.33C42.6028 4.98467 42.4862 4.47133 42.4862 3.79C42.4862 3.23 42.5842 2.768 42.7802 2.404C42.9762 2.04 43.3308 1.76 43.8442 1.564C44.3575 1.35867 45.0762 1.256 46.0002 1.256C46.3828 1.256 46.8215 1.27933 47.3162 1.326C47.8202 1.37267 48.2635 1.43333 48.6462 1.508V2.39C48.2822 2.334 47.8808 2.28733 47.4422 2.25C47.0035 2.21267 46.6348 2.194 46.3362 2.194C45.5242 2.194 44.9222 2.25 44.5302 2.362C44.1382 2.46467 43.8768 2.63733 43.7462 2.88C43.6248 3.12267 43.5642 3.47733 43.5642 3.944C43.5642 4.29867 43.6015 4.59733 43.6762 4.84C43.7508 5.07333 43.9095 5.26933 44.1522 5.428C44.4042 5.57733 44.7775 5.652 45.2722 5.652H46.3642V6.604H45.2722C44.7588 6.604 44.3715 6.66933 44.1102 6.8C43.8582 6.93067 43.6902 7.122 43.6062 7.374C43.5315 7.61667 43.4942 7.95733 43.4942 8.396C43.4942 8.9 43.5828 9.28267 43.7602 9.544C43.9375 9.796 44.1988 9.96867 44.5442 10.062C44.8988 10.146 45.3982 10.188 46.0422 10.188C46.6488 10.188 47.1762 10.1507 47.6242 10.076V5.652H50.1022ZM54.6747 1.368H58.4127C59.262 1.368 59.8687 1.57333 60.2327 1.984C60.606 2.39467 60.7927 2.992 60.7927 3.776C60.7927 4.42933 60.6714 4.94267 60.4287 5.316C60.1954 5.68933 59.8127 5.932 59.2807 6.044V6.1C59.8967 6.22133 60.3167 6.48267 60.5407 6.884C60.774 7.276 60.8907 7.80333 60.8907 8.466C60.8907 9.25 60.7087 9.87067 60.3447 10.328C59.9807 10.776 59.318 11 58.3567 11H54.6747V1.368ZM58.0907 5.624C58.6227 5.624 59.0194 5.49333 59.2807 5.232C59.542 4.97067 59.6727 4.56 59.6727 4C59.6727 3.58933 59.626 3.26733 59.5327 3.034C59.4487 2.80067 59.29 2.63267 59.0567 2.53C58.8327 2.418 58.5107 2.362 58.0907 2.362H55.7947V5.624H58.0907ZM58.1467 10.02C58.7627 10.02 59.1827 9.894 59.4067 9.642C59.64 9.39 59.7567 8.95133 59.7567 8.326C59.7567 7.70067 59.6354 7.262 59.3927 7.01C59.1594 6.74867 58.744 6.618 58.1467 6.618H55.7947V10.02H58.1467ZM62.7922 11V0.598H63.8562V11H62.7922ZM68.4841 11.112C67.6067 11.112 66.9767 11.014 66.5941 10.818C66.2114 10.6127 65.9641 10.272 65.8521 9.796C65.7494 9.31067 65.6981 8.522 65.6981 7.43C65.6981 6.338 65.7494 5.554 65.8521 5.078C65.9641 4.59267 66.2114 4.252 66.5941 4.056C66.9767 3.85067 67.6067 3.748 68.4841 3.748C69.3614 3.748 69.9914 3.85067 70.3741 4.056C70.7567 4.252 70.9994 4.59267 71.1021 5.078C71.2141 5.554 71.2701 6.338 71.2701 7.43C71.2701 8.522 71.2141 9.31067 71.1021 9.796C70.9994 10.272 70.7567 10.6127 70.3741 10.818C69.9914 11.014 69.3614 11.112 68.4841 11.112ZM68.4841 10.188C69.0627 10.188 69.4641 10.1273 69.6881 10.006C69.9214 9.87533 70.0661 9.642 70.1221 9.306C70.1781 8.96067 70.2061 8.33533 70.2061 7.43C70.2061 6.52467 70.1781 5.904 70.1221 5.568C70.0661 5.22267 69.9214 4.98933 69.6881 4.868C69.4641 4.73733 69.0627 4.672 68.4841 4.672C67.9054 4.672 67.5041 4.73733 67.2801 4.868C67.0561 4.98933 66.9161 5.22267 66.8601 5.568C66.8041 5.904 66.7761 6.52467 66.7761 7.43C66.7761 8.34467 66.8041 8.97 66.8601 9.306C66.9161 9.642 67.0561 9.87533 67.2801 10.006C67.5041 10.1273 67.9054 10.188 68.4841 10.188ZM75.3968 13.842C74.5568 13.842 73.8194 13.8 73.1848 13.716V12.848C73.9128 12.8947 74.5801 12.918 75.1868 12.918C75.8214 12.918 76.2788 12.848 76.5588 12.708C76.8388 12.5773 77.0208 12.3393 77.1048 11.994C77.1981 11.6487 77.2448 11.0933 77.2448 10.328V10.076H77.1748C77.0254 10.4307 76.7874 10.6873 76.4608 10.846C76.1341 10.9953 75.7094 11.07 75.1868 11.07C74.5428 11.07 74.0528 10.9673 73.7168 10.762C73.3901 10.5473 73.1614 10.188 73.0308 9.684C72.9001 9.17067 72.8348 8.41933 72.8348 7.43C72.8348 6.43133 72.9001 5.67533 73.0308 5.162C73.1708 4.63933 73.4041 4.27533 73.7308 4.07C74.0668 3.85533 74.5521 3.748 75.1868 3.748C75.6814 3.748 76.1061 3.82733 76.4608 3.986C76.8154 4.14467 77.0721 4.43867 77.2308 4.868H77.3008L77.3568 3.86H78.3088V10.034C78.3088 11.0513 78.2434 11.8167 78.1128 12.33C77.9821 12.8527 77.7114 13.2353 77.3008 13.478C76.8901 13.7207 76.2554 13.842 75.3968 13.842ZM75.5928 10.118C76.0034 10.118 76.3254 10.0527 76.5588 9.922C76.8014 9.79133 76.9694 9.58133 77.0628 9.292C77.1374 9.07733 77.1841 8.83467 77.2028 8.564C77.2308 8.284 77.2448 7.90133 77.2448 7.416C77.2448 6.968 77.2354 6.60867 77.2168 6.338C77.1981 6.06733 77.1561 5.834 77.0908 5.638C76.9881 5.31133 76.8154 5.078 76.5728 4.938C76.3394 4.78867 76.0128 4.714 75.5928 4.714C75.0701 4.714 74.6968 4.77467 74.4728 4.896C74.2488 5.008 74.0994 5.246 74.0248 5.61C73.9501 5.96467 73.9128 6.56667 73.9128 7.416C73.9128 8.256 73.9501 8.858 74.0248 9.222C74.0994 9.586 74.2488 9.82867 74.4728 9.95C74.6968 10.062 75.0701 10.118 75.5928 10.118ZM82.4872 11.112C82.1419 11.112 81.7546 11.0933 81.3252 11.056C80.8959 11.0187 80.5272 10.9767 80.2192 10.93V10.048C80.9566 10.1413 81.6892 10.188 82.4172 10.188C82.8279 10.188 83.1312 10.1507 83.3272 10.076C83.5232 10.0013 83.6539 9.88467 83.7192 9.726C83.7846 9.56733 83.8172 9.33867 83.8172 9.04C83.8172 8.71333 83.7939 8.48 83.7472 8.34C83.7099 8.2 83.6352 8.10667 83.5232 8.06C83.4206 8.01333 83.2479 7.976 83.0052 7.948L81.3812 7.738C80.8492 7.67267 80.4899 7.50467 80.3032 7.234C80.1166 6.954 80.0232 6.48733 80.0232 5.834C80.0232 5.25533 80.1212 4.81667 80.3172 4.518C80.5132 4.21 80.7886 4.00467 81.1432 3.902C81.4979 3.79933 81.9646 3.748 82.5432 3.748C82.8606 3.748 83.2059 3.76667 83.5792 3.804C83.9526 3.84133 84.2652 3.888 84.5172 3.944V4.826C83.9666 4.72333 83.3039 4.672 82.5292 4.672C82.1652 4.672 81.8852 4.69533 81.6892 4.742C81.4932 4.78867 81.3392 4.89133 81.2272 5.05C81.1246 5.20867 81.0732 5.45133 81.0732 5.778C81.0732 6.07667 81.0919 6.296 81.1292 6.436C81.1759 6.56667 81.2506 6.66 81.3532 6.716C81.4559 6.76267 81.6239 6.8 81.8572 6.828L83.4672 7.024C83.8312 7.06133 84.1066 7.136 84.2932 7.248C84.4892 7.36 84.6339 7.55133 84.7272 7.822C84.8206 8.09267 84.8672 8.48933 84.8672 9.012C84.8672 9.572 84.7786 10.006 84.6012 10.314C84.4332 10.6127 84.1766 10.8227 83.8312 10.944C83.4952 11.056 83.0472 11.112 82.4872 11.112Z" fill="#254CAC"/>
</svg>
